<svg width="50" height="50" viewBox="0 0 50 50" fill="none" xmlns="http://www.w3.org/2000/svg">
<path d="M25 18.75C26.1458 18.75 27.0833 17.8125 27.0833 16.6667V12.5H31.25C32.3958 12.5 33.3333 11.5625 33.3333 10.4167C33.3333 9.27084 32.3958 8.33334 31.25 8.33334H27.0833V4.16668C27.0833 3.02084 26.1458 2.08334 25 2.08334C23.8541 2.08334 22.9166 3.02084 22.9166 4.16668V8.33334H18.75C17.6041 8.33334 16.6666 9.27084 16.6666 10.4167C16.6666 11.5625 17.6041 12.5 18.75 12.5H22.9166V16.6667C22.9166 17.8125 23.8541 18.75 25 18.75ZM14.5833 37.5C12.2916 37.5 10.4375 39.375 10.4375 41.6667C10.4375 43.9583 12.2916 45.8333 14.5833 45.8333C16.875 45.8333 18.75 43.9583 18.75 41.6667C18.75 39.375 16.875 37.5 14.5833 37.5ZM35.4166 37.5C33.125 37.5 31.2708 39.375 31.2708 41.6667C31.2708 43.9583 33.125 45.8333 35.4166 45.8333C37.7083 45.8333 39.5833 43.9583 39.5833 41.6667C39.5833 39.375 37.7083 37.5 35.4166 37.5ZM16.875 27.0833H32.3958C33.9583 27.0833 35.3333 26.2292 36.0416 24.9375L42.7917 12.1458C43.3125 11.1458 42.9583 9.89584 41.9583 9.35418C40.9375 8.79168 39.6666 9.18751 39.125 10.2083L32.3958 22.9167H17.7708L8.89581 4.16668H4.16665C3.02081 4.16668 2.08331 5.10418 2.08331 6.25001C2.08331 7.39584 3.02081 8.33334 4.16665 8.33334H6.24998L13.75 24.1458L10.9375 29.2292C9.41665 32.0208 11.4166 35.4167 14.5833 35.4167H37.5C38.6458 35.4167 39.5833 34.4792 39.5833 33.3333C39.5833 32.1875 38.6458 31.25 37.5 31.25H14.5833L16.875 27.0833Z" fill="#DE2727"/>
</svg>
