<svg width="263" height="103" viewBox="0 0 263 103" fill="none" xmlns="http://www.w3.org/2000/svg">
<g clip-path="url(#clip0_126_4)">
<path d="M97.3684 42.8459C95.0028 44.8532 92.0084 45.9231 89.0441 45.8202C86.0797 45.7174 83.3883 44.4503 81.5617 42.2976C79.7352 40.1449 78.9232 37.283 79.3044 34.3415C79.6856 31.4 81.2287 28.6198 83.5944 26.6125L78.431 20.5272C76.377 22.267 74.6555 24.3585 73.3651 26.6819C72.0747 29.0053 71.2407 31.5149 70.9109 34.067C70.5812 36.6192 70.7621 39.1637 71.4434 41.5547C72.1247 43.9457 73.2929 46.1364 74.8811 48.0011C76.4694 49.8658 78.4464 51.368 80.699 52.4215C82.9517 53.4751 85.4356 54.0593 88.0084 54.1408C90.5813 54.2222 93.1927 53.7993 95.6928 52.8962C98.193 51.9931 100.533 50.6276 102.578 48.878L97.3684 42.8459Z" fill="#DE2727"/>
<path d="M102.578 48.878L102.441 48.719C98.3222 51.4039 93.4916 52.6173 88.8384 52.1358C84.1853 51.6544 80.0228 49.5105 77.1171 46.0989C74.2115 42.6872 72.7582 38.2374 73.0249 33.5685C73.2916 28.8996 75.2603 24.3259 78.5685 20.6893L78.431 20.5272C76.377 22.267 74.6555 24.3584 73.365 26.6818C72.0746 29.0052 71.2406 31.5149 70.9109 34.067C70.5811 36.6191 70.762 39.1636 71.4433 41.5547C72.1246 43.9457 73.2928 46.1363 74.8811 48.001C76.4693 49.8658 78.4464 51.3679 80.699 52.4215C82.9516 53.475 85.4355 54.0593 88.0084 54.1407C90.5813 54.2222 93.1926 53.7993 95.6928 52.8962C98.1929 51.9931 100.533 50.6276 102.578 48.8779L102.578 48.878Z" fill="#DE2727"/>
<path d="M37.8533 42.7492L33.5526 37.6807L31.3312 39.5655L35.6318 44.6341L37.8533 42.7492Z" fill="#DE2727"/>
<path d="M34.5618 31.5319L38.1635 26.7374L35.9498 25.2291L32.348 30.0236L34.5618 31.5319Z" fill="#DE2727"/>
<path d="M49.0574 17.5454L47.3359 15.5165L42.8848 19.2933L44.6063 21.3222L49.0574 17.5454Z" fill="#DE2727"/>
<path d="M73.5196 12.4864L69.2189 7.41781L66.9892 9.30968L71.2899 14.3783L73.5196 12.4864Z" fill="#DE2727"/>
<path d="M60.7664 9.2972L59.6387 6.86743L54.3218 9.64045L55.4495 12.0702L60.7664 9.2972Z" fill="#DE2727"/>
<path d="M43.526 44.9153L40.9469 41.8756C40.4862 41.3436 39.8141 41.0311 39.0752 41.0055C38.3362 40.9798 37.5895 41.2431 36.9957 41.7386L34.7742 43.6235C34.1887 44.1287 33.8074 44.8226 33.7123 45.5558C33.6173 46.2891 33.8162 47.0031 34.2661 47.5443L36.8452 50.5839L39.075 48.692L36.4958 45.6524L38.7173 43.7675L41.2964 46.8071L43.526 44.9153Z" fill="#DE2727"/>
<path d="M61.6983 73.1121C64.0602 71.1039 65.5999 68.3248 65.9791 65.3854C66.3584 62.4459 65.5462 59.5866 63.721 57.4355C61.8958 55.2844 59.2068 54.0175 56.2449 53.9131C53.2829 53.8087 50.2902 54.8753 47.9243 56.8787L42.7609 50.7934C44.8119 49.0501 47.1557 47.6921 49.6582 46.7972C52.1607 45.9023 54.7727 45.4881 57.3444 45.5783C59.9162 45.6684 62.3973 46.2613 64.6455 47.3228C66.8937 48.3843 68.8649 49.8936 70.4461 51.7642C72.0273 53.6349 73.1875 55.8302 73.8603 58.2243C74.533 60.6184 74.705 63.1642 74.3664 65.7161C74.0279 68.2679 73.1854 70.7755 71.8873 73.0953C70.5892 75.415 68.8609 77.5013 66.8016 79.2347L61.6983 73.1121Z" fill="#DE2727"/>
<path d="M66.8566 79.1914L66.8549 79.1894C63.4562 82.0758 59.2921 83.8722 54.9968 84.305C50.7015 84.7379 46.5106 83.7834 43.0623 81.587C39.6141 79.3907 37.0976 76.0727 35.8962 72.1387C34.6948 68.2047 34.8744 63.8703 36.4075 59.7956L34.4859 55.6512C34.0693 54.8257 33.8755 53.8927 33.9216 52.9343C33.9623 52.3951 34.1162 51.8598 34.3735 51.3623C34.6308 50.8648 34.9858 50.4161 35.416 50.0446C38.0165 47.8378 40.6164 45.6318 43.2156 43.4265C43.6525 43.0623 44.1534 42.7849 44.6865 42.6117C45.2196 42.4386 45.7732 42.3736 46.3123 42.4208C47.267 42.5294 48.1582 42.8705 48.9076 43.4144L52.8637 46.1221L52.8706 46.1302C53.3734 46.4678 53.7816 46.9204 54.0646 47.4542C54.3477 47.988 54.4983 48.5893 54.5053 49.2134C54.5124 49.8374 54.3756 50.4681 54.1052 51.0585C53.8348 51.6489 53.4378 52.1838 52.9437 52.6233L47.9259 56.8808C45.5725 58.8908 44.0404 61.6672 43.6654 64.6017C43.2903 67.5363 44.1028 70.3898 45.925 72.5373C47.7471 74.6847 50.4303 75.9511 53.3867 76.0588C56.3432 76.1666 59.3319 75.107 61.6983 73.1122C62.5844 72.3629 63.7048 71.9642 64.8135 72.0037C65.9221 72.0431 66.9285 72.5175 67.6118 73.3228C68.295 74.128 68.5992 75.1982 68.4576 76.2985C68.316 77.3988 67.7402 78.4393 66.8566 79.1916L66.8566 79.1914Z" fill="#DE2727"/>
<path d="M66.8547 79.1892L66.8566 79.1913L66.8566 79.1915C67.093 78.9892 67.3063 78.7614 67.4929 78.512C63.9637 80.9484 59.7367 82.193 55.4098 82.07C51.0828 81.947 46.8749 80.4625 43.381 77.8264C39.8872 75.1904 37.2843 71.5363 35.9404 67.3808C34.5966 63.2253 34.5798 58.7789 35.8925 54.6702L33.6205 50.1129C33.1324 49.2031 32.8721 48.1916 32.8623 47.1675C32.8725 46.5922 33.0018 46.028 33.2421 45.5105C33.4824 44.9931 33.8285 44.5338 34.2583 44.1618C33.5153 44.7922 32.7723 45.4227 32.0292 46.0532C31.5994 46.4252 31.2533 46.8845 31.013 47.4019C30.7727 47.9194 30.6433 48.4836 30.6332 49.0589C30.643 50.083 30.9033 51.0945 31.3914 52.0043L33.6634 56.5616C32.2985 60.8346 32.3727 65.4681 33.8746 69.7562C35.3766 74.0444 38.2239 77.7522 41.9829 80.3148C45.7419 82.8774 50.2064 84.1544 54.6966 83.9512C59.1867 83.748 63.4562 82.0757 66.8547 79.1892V79.1892Z" fill="#DE2727"/>
<path d="M36.7984 27.9472C37.2591 28.4793 37.9312 28.7918 38.6702 28.8174C39.4091 28.843 40.1558 28.5798 40.7497 28.0843L45.209 24.3005C45.7946 23.7953 46.1759 23.1014 46.2709 22.3682C46.3659 21.6349 46.1671 20.9209 45.7171 20.3797L43.9956 18.3508C43.5349 17.8187 42.8628 17.5063 42.1238 17.4806C41.3849 17.455 40.6382 17.7182 40.0443 18.2137L35.585 21.9975C34.9994 22.5027 34.6181 23.1966 34.5231 23.9299C34.4281 24.6631 34.6269 25.3771 35.0769 25.9183L36.7984 27.9472ZM39.0281 26.0554L37.3066 24.0264L41.7659 20.2427L43.4874 22.2716L39.0281 26.0554Z" fill="#DE2727"/>
<path d="M33.6279 40.2921C34.3676 40.3111 35.1125 40.0413 35.7022 39.541C36.292 39.0406 36.6794 38.3496 36.7811 37.6166L37.4997 32.0717C37.588 31.3382 37.3824 30.6266 36.927 30.09C36.4717 29.5534 35.8031 29.2346 35.065 29.2024L32.2711 29.1055C31.5313 29.0865 30.7864 29.3562 30.1967 29.8566C29.607 30.3569 29.2196 31.048 29.1179 31.781L28.3993 37.3258C28.311 38.0593 28.5166 38.7709 28.9719 39.3075C29.4273 39.8441 30.0959 40.1629 30.834 40.1952L33.6279 40.2921ZM33.9871 37.5196L31.1933 37.4227L31.9119 31.8778L34.7058 31.9748L33.9871 37.5196Z" fill="#DE2727"/>
<path d="M56.8654 10.9204C57.3154 11.4615 57.5143 12.1755 57.4192 12.9088C57.3242 13.642 56.9429 14.3359 56.3574 14.8411L51.898 18.6249C51.3042 19.1204 50.5575 19.3836 49.8186 19.358C49.0796 19.3324 48.4075 19.0199 47.9468 18.4878L46.2253 16.4589C45.7753 15.9178 45.5764 15.2037 45.6715 14.4705C45.7665 13.7372 46.1478 13.0433 46.7334 12.5381L51.1927 8.75434C51.7865 8.25886 52.5333 7.99561 53.2722 8.02124C54.0112 8.04687 54.6833 8.35934 55.1439 8.8914L56.8654 10.9204ZM54.6358 12.8122L52.9142 10.7833L48.4549 14.5671L50.1764 16.596L54.6358 12.8122Z" fill="#DE2727"/>
<path d="M79.1924 14.6523L76.6133 11.6127C76.1526 11.0806 75.4805 10.7682 74.7415 10.7425C74.0026 10.7169 73.2558 10.9802 72.662 11.4757L70.4323 13.3675C69.8479 13.8723 69.4679 14.5657 69.3744 15.2979C69.2808 16.0302 69.4813 16.7426 69.9325 17.2814L72.5116 20.321L74.7331 18.436L72.154 15.3964L74.3836 13.5046L76.9627 16.5442L79.1924 14.6523Z" fill="#DE2727"/>
<path d="M69.5583 9.80513C69.4565 10.5381 69.0692 11.2292 68.4794 11.7295C67.8897 12.2299 67.1448 12.4996 66.4051 12.4806L60.8275 12.2872C60.0894 12.2549 59.4208 11.9361 58.9655 11.3995C58.5102 10.8629 58.3045 10.1513 58.3929 9.41782L58.7521 6.64536C58.8538 5.91236 59.2412 5.22132 59.8309 4.72095C60.4207 4.22058 61.1656 3.95087 61.9053 3.96986L67.4829 4.16335C68.2209 4.19562 68.8896 4.51437 69.3449 5.05099C69.8002 5.58761 70.0058 6.29922 69.9175 7.03269L69.5583 9.80513ZM66.7643 9.70822L67.1236 6.93579L61.5461 6.74232L61.1868 9.51474L66.7643 9.70822Z" fill="#DE2727"/>
<path d="M102.527 48.9253L102.525 48.9232C105.926 46.0399 108.377 42.2238 109.503 38.0563C110.63 33.8889 110.37 29.5984 108.765 25.8386C107.159 22.0787 104.295 19.0556 100.609 17.2297C96.9233 15.4038 92.6175 14.8752 88.3476 15.7245L84.5714 13.1537C83.8247 12.6083 82.9357 12.2652 81.9826 12.1545C81.444 12.1069 80.8907 12.1716 80.358 12.3444C79.8252 12.5173 79.3246 12.7945 78.888 13.1584C76.2873 15.3649 73.6874 17.5709 71.0884 19.7764C70.6579 20.1482 70.3026 20.5972 70.0449 21.095C69.7873 21.5928 69.633 22.1284 69.5918 22.668C69.5435 23.6277 69.735 24.5626 70.1496 25.3905L72.1771 29.7347L72.1839 29.7427C72.4351 30.2939 72.8152 30.7703 73.2958 31.1365C73.7764 31.5027 74.3452 31.7492 74.9597 31.8578C75.5743 31.9663 76.2189 31.9341 76.8454 31.7634C77.4719 31.5928 78.0643 31.2881 78.5785 30.8722L83.5962 26.6146C84.7668 25.6148 86.1057 24.835 87.5361 24.32C88.9664 23.8049 90.46 23.5647 91.9313 23.6132C93.4026 23.6616 94.8226 23.9977 96.1098 24.6023C97.397 25.2068 98.5262 26.0679 99.4326 27.1361C100.339 28.2043 101.005 29.4586 101.392 30.8271C101.778 32.1955 101.879 33.6513 101.687 35.1108C101.495 36.5704 101.015 38.005 100.274 39.3323C99.533 40.6597 98.5456 41.8538 97.3685 42.846C96.4826 43.5977 95.9047 44.6389 95.7619 45.7405C95.6192 46.8421 95.9233 47.9138 96.6073 48.72C97.2913 49.5262 98.2993 50.0007 99.4094 50.0392C100.52 50.0777 101.641 49.6771 102.527 48.9254L102.527 48.9253Z" fill="#DE2727"/>
<path d="M78.4328 20.5292C77.8172 21.0515 77.7035 21.929 78.1788 22.4892C78.654 23.0493 79.5383 23.08 80.1539 22.5577C80.7694 22.0354 80.8831 21.1579 80.4079 20.5978C79.9326 20.0376 79.0483 20.0069 78.4328 20.5292Z" fill="#DE2727"/>
<path d="M42.7669 50.7917C42.1514 51.314 42.0377 52.1914 42.5129 52.7516C42.9882 53.3117 43.8725 53.3424 44.488 52.8201C45.1036 52.2978 45.2173 51.4203 44.742 50.8602C44.2668 50.3 43.3825 50.2694 42.7669 50.7917Z" fill="#DE2727"/>
</g>
<path d="M132.816 37.696C133.76 37.696 134.488 37.8 135 38.008C135.512 38.2 135.952 38.408 136.32 38.632C136.512 38.744 136.664 38.832 136.776 38.896C136.904 38.944 137.024 38.968 137.136 38.968C137.296 38.968 137.408 38.88 137.472 38.704C137.552 38.528 137.616 38.264 137.664 37.912H138.216C138.2 38.216 138.176 38.584 138.144 39.016C138.128 39.432 138.112 39.984 138.096 40.672C138.096 41.36 138.096 42.264 138.096 43.384H137.544C137.48 42.552 137.288 41.744 136.968 40.96C136.648 40.176 136.192 39.536 135.6 39.04C135.024 38.528 134.312 38.272 133.464 38.272C132.696 38.272 132.064 38.488 131.568 38.92C131.072 39.352 130.824 39.952 130.824 40.72C130.824 41.36 130.984 41.912 131.304 42.376C131.624 42.824 132.088 43.264 132.696 43.696C133.32 44.128 134.072 44.648 134.952 45.256C135.72 45.752 136.408 46.248 137.016 46.744C137.624 47.24 138.112 47.8 138.48 48.424C138.848 49.048 139.032 49.792 139.032 50.656C139.032 51.712 138.752 52.584 138.192 53.272C137.648 53.96 136.928 54.48 136.032 54.832C135.136 55.168 134.152 55.336 133.08 55.336C132.088 55.336 131.296 55.24 130.704 55.048C130.112 54.856 129.616 54.656 129.216 54.448C128.864 54.224 128.592 54.112 128.4 54.112C128.24 54.112 128.12 54.2 128.04 54.376C127.976 54.552 127.92 54.816 127.872 55.168H127.32C127.352 54.784 127.368 54.336 127.368 53.824C127.384 53.312 127.392 52.648 127.392 51.832C127.408 51 127.416 49.952 127.416 48.688H127.968C128.032 49.744 128.208 50.736 128.496 51.664C128.8 52.576 129.256 53.312 129.864 53.872C130.488 54.432 131.312 54.712 132.336 54.712C132.896 54.712 133.392 54.616 133.824 54.424C134.272 54.216 134.632 53.912 134.904 53.512C135.176 53.112 135.312 52.616 135.312 52.024C135.312 51.352 135.152 50.768 134.832 50.272C134.528 49.776 134.104 49.312 133.56 48.88C133.032 48.448 132.416 48.008 131.712 47.56C130.96 47.064 130.256 46.568 129.6 46.072C128.944 45.576 128.416 45.008 128.016 44.368C127.632 43.728 127.44 42.968 127.44 42.088C127.44 41.08 127.688 40.256 128.184 39.616C128.696 38.96 129.36 38.48 130.176 38.176C131.008 37.856 131.888 37.696 132.816 37.696ZM147.744 42.256C149.152 42.256 150.256 42.672 151.056 43.504C151.856 44.336 152.256 45.696 152.256 47.584H144.36L144.312 47.128H149.232C149.248 46.344 149.2 45.624 149.088 44.968C148.976 44.296 148.8 43.76 148.56 43.36C148.32 42.96 148 42.76 147.6 42.76C147.04 42.76 146.56 43.112 146.16 43.816C145.776 44.52 145.544 45.688 145.464 47.32L145.536 47.464C145.52 47.656 145.504 47.856 145.488 48.064C145.488 48.272 145.488 48.488 145.488 48.712C145.488 49.816 145.64 50.712 145.944 51.4C146.264 52.088 146.664 52.592 147.144 52.912C147.624 53.216 148.112 53.368 148.608 53.368C148.944 53.368 149.288 53.32 149.64 53.224C150.008 53.112 150.376 52.92 150.744 52.648C151.112 52.36 151.456 51.96 151.776 51.448L152.208 51.592C152.016 52.2 151.712 52.792 151.296 53.368C150.88 53.944 150.352 54.416 149.712 54.784C149.072 55.152 148.304 55.336 147.408 55.336C146.32 55.336 145.36 55.104 144.528 54.64C143.696 54.176 143.04 53.472 142.56 52.528C142.096 51.584 141.864 50.384 141.864 48.928C141.864 47.44 142.112 46.2 142.608 45.208C143.12 44.216 143.816 43.48 144.696 43C145.592 42.504 146.608 42.256 147.744 42.256ZM159.582 42.592V43.096C159.262 43.096 159.022 43.168 158.862 43.312C158.718 43.456 158.726 43.656 158.886 43.912L165.198 53.296C165.39 53.584 165.59 53.848 165.798 54.088C166.022 54.312 166.27 54.448 166.542 54.496V55C166.302 54.984 165.934 54.968 165.438 54.952C164.958 54.92 164.47 54.904 163.974 54.904C163.398 54.904 162.806 54.92 162.198 54.952C161.59 54.968 161.142 54.984 160.854 55V54.496C161.174 54.496 161.406 54.424 161.55 54.28C161.71 54.136 161.71 53.936 161.55 53.68L155.238 44.296C154.966 43.896 154.734 43.608 154.542 43.432C154.366 43.24 154.15 43.128 153.894 43.096V42.592C154.166 42.608 154.574 42.632 155.118 42.664C155.662 42.68 156.206 42.688 156.75 42.688C157.278 42.688 157.814 42.68 158.358 42.664C158.902 42.632 159.31 42.608 159.582 42.592ZM159.03 49.216C159.03 49.216 159.038 49.264 159.054 49.36C159.086 49.456 159.11 49.552 159.126 49.648C159.158 49.744 159.174 49.792 159.174 49.792L158.214 51.016C157.734 51.64 157.47 52.216 157.422 52.744C157.374 53.256 157.51 53.672 157.83 53.992C158.15 54.296 158.59 54.472 159.15 54.52V55C158.846 54.984 158.47 54.976 158.022 54.976C157.59 54.96 157.166 54.952 156.75 54.952C156.334 54.936 155.982 54.928 155.694 54.928C155.342 54.928 155.03 54.936 154.758 54.952C154.502 54.952 154.254 54.968 154.014 55V54.52C154.382 54.376 154.734 54.168 155.07 53.896C155.406 53.608 155.782 53.2 156.198 52.672L159.03 49.216ZM165.846 42.592V43.072C165.51 43.168 165.158 43.376 164.79 43.696C164.422 44.016 164.038 44.424 163.638 44.92L160.998 48.232C160.998 48.232 160.982 48.192 160.95 48.112C160.934 48.016 160.91 47.92 160.878 47.824C160.862 47.728 160.854 47.68 160.854 47.68L162.054 46.072C162.486 45.512 162.75 45.016 162.846 44.584C162.942 44.152 162.87 43.8 162.63 43.528C162.406 43.256 162.006 43.104 161.43 43.072V42.592C161.894 42.608 162.366 42.624 162.846 42.64C163.326 42.656 163.758 42.664 164.142 42.664C164.51 42.664 164.83 42.656 165.102 42.64C165.374 42.624 165.622 42.608 165.846 42.592ZM190.061 38.008V38.488C189.709 38.616 189.341 38.896 188.957 39.328C188.573 39.744 188.237 40.416 187.949 41.344L183.725 55.048C183.597 55.032 183.461 55.024 183.317 55.024C183.173 55.024 183.029 55.024 182.885 55.024C182.741 55.024 182.597 55.024 182.453 55.024C182.309 55.024 182.173 55.032 182.045 55.048L177.005 39.784C176.845 39.288 176.645 38.952 176.405 38.776C176.181 38.6 175.941 38.504 175.685 38.488V38.008C176.133 38.024 176.661 38.04 177.269 38.056C177.893 38.072 178.509 38.08 179.117 38.08C179.821 38.08 180.477 38.072 181.085 38.056C181.709 38.04 182.205 38.024 182.573 38.008V38.488C182.093 38.504 181.709 38.56 181.421 38.656C181.149 38.752 180.989 38.936 180.941 39.208C180.909 39.48 180.989 39.912 181.181 40.504L184.589 50.92L184.037 51.904L186.749 43.288C187.133 42.072 187.317 41.12 187.301 40.432C187.285 39.744 187.101 39.256 186.749 38.968C186.397 38.664 185.893 38.504 185.237 38.488V38.008C185.781 38.024 186.293 38.04 186.773 38.056C187.253 38.072 187.733 38.08 188.213 38.08C188.581 38.08 188.917 38.072 189.221 38.056C189.541 38.04 189.821 38.024 190.061 38.008ZM172.925 38.008V38.488C172.605 38.536 172.381 38.656 172.253 38.848C172.125 39.024 172.069 39.264 172.085 39.568C172.117 39.856 172.189 40.168 172.301 40.504L175.973 51.16L175.325 52.024L178.397 43.048L178.733 43.696L174.965 55.048C174.837 55.032 174.701 55.024 174.557 55.024C174.413 55.024 174.269 55.024 174.125 55.024C173.981 55.024 173.837 55.024 173.693 55.024C173.549 55.024 173.413 55.032 173.285 55.048L167.909 40.024C167.701 39.432 167.453 39.032 167.165 38.824C166.893 38.616 166.637 38.504 166.397 38.488V38.008C166.877 38.024 167.445 38.04 168.101 38.056C168.757 38.072 169.381 38.08 169.973 38.08C170.613 38.08 171.181 38.072 171.677 38.056C172.189 38.04 172.605 38.024 172.925 38.008ZM193.888 36.4C194.56 36.4 195.088 36.568 195.472 36.904C195.872 37.224 196.072 37.672 196.072 38.248C196.072 38.824 195.872 39.28 195.472 39.616C195.088 39.936 194.56 40.096 193.888 40.096C193.216 40.096 192.68 39.936 192.28 39.616C191.896 39.28 191.704 38.824 191.704 38.248C191.704 37.672 191.896 37.224 192.28 36.904C192.68 36.568 193.216 36.4 193.888 36.4ZM195.76 42.328V52.768C195.76 53.44 195.872 53.896 196.096 54.136C196.336 54.376 196.736 54.496 197.296 54.496V55C197.008 54.984 196.56 54.968 195.952 54.952C195.344 54.92 194.728 54.904 194.104 54.904C193.48 54.904 192.848 54.92 192.208 54.952C191.568 54.968 191.088 54.984 190.768 55V54.496C191.328 54.496 191.72 54.376 191.944 54.136C192.184 53.896 192.304 53.44 192.304 52.768V45.208C192.304 44.488 192.192 43.96 191.968 43.624C191.76 43.272 191.36 43.096 190.768 43.096V42.592C191.28 42.64 191.776 42.664 192.256 42.664C192.928 42.664 193.552 42.64 194.128 42.592C194.72 42.528 195.264 42.44 195.76 42.328ZM208.226 42.256C208.898 42.256 209.442 42.344 209.858 42.52C210.29 42.68 210.626 42.904 210.866 43.192C211.122 43.496 211.306 43.888 211.418 44.368C211.546 44.848 211.61 45.496 211.61 46.312V52.768C211.61 53.44 211.722 53.896 211.946 54.136C212.186 54.376 212.586 54.496 213.146 54.496V55C212.842 54.984 212.386 54.968 211.778 54.952C211.17 54.92 210.57 54.904 209.978 54.904C209.37 54.904 208.77 54.92 208.178 54.952C207.602 54.968 207.162 54.984 206.858 55V54.496C207.338 54.496 207.674 54.376 207.866 54.136C208.058 53.896 208.154 53.44 208.154 52.768V45.304C208.154 44.904 208.114 44.56 208.034 44.272C207.954 43.968 207.81 43.736 207.602 43.576C207.394 43.4 207.082 43.312 206.666 43.312C206.234 43.312 205.834 43.432 205.466 43.672C205.114 43.912 204.826 44.248 204.602 44.68C204.394 45.096 204.29 45.568 204.29 46.096V52.768C204.29 53.44 204.386 53.896 204.578 54.136C204.786 54.376 205.122 54.496 205.586 54.496V55C205.298 54.984 204.874 54.968 204.314 54.952C203.77 54.92 203.202 54.904 202.61 54.904C202.002 54.904 201.378 54.92 200.738 54.952C200.098 54.968 199.618 54.984 199.298 55V54.496C199.858 54.496 200.25 54.376 200.474 54.136C200.714 53.896 200.834 53.44 200.834 52.768V45.208C200.834 44.488 200.722 43.96 200.498 43.624C200.29 43.272 199.89 43.096 199.298 43.096V42.592C199.81 42.64 200.306 42.664 200.786 42.664C201.458 42.664 202.082 42.64 202.658 42.592C203.25 42.528 203.794 42.44 204.29 42.328V44.488C204.69 43.672 205.234 43.096 205.922 42.76C206.61 42.424 207.378 42.256 208.226 42.256ZM226.808 36.208V52.36C226.808 53.08 226.92 53.616 227.144 53.968C227.368 54.304 227.768 54.472 228.344 54.472V54.976C227.848 54.928 227.352 54.904 226.856 54.904C226.184 54.904 225.552 54.928 224.96 54.976C224.384 55.024 223.848 55.112 223.352 55.24V39.088C223.352 38.368 223.24 37.84 223.016 37.504C222.808 37.152 222.408 36.976 221.816 36.976V36.472C222.328 36.52 222.824 36.544 223.304 36.544C223.96 36.544 224.584 36.52 225.176 36.472C225.768 36.408 226.312 36.32 226.808 36.208ZM220.688 42.256C221.392 42.256 222.008 42.376 222.536 42.616C223.08 42.84 223.504 43.224 223.808 43.768L223.52 44.032C223.312 43.648 223.032 43.376 222.68 43.216C222.344 43.04 221.984 42.952 221.6 42.952C220.784 42.952 220.136 43.432 219.656 44.392C219.176 45.336 218.944 46.8 218.96 48.784C218.96 50.144 219.048 51.232 219.224 52.048C219.416 52.848 219.68 53.424 220.016 53.776C220.368 54.128 220.768 54.304 221.216 54.304C221.76 54.304 222.248 54.088 222.68 53.656C223.112 53.224 223.344 52.64 223.376 51.904L223.496 52.744C223.256 53.592 222.864 54.24 222.32 54.688C221.792 55.12 221.096 55.336 220.232 55.336C219.288 55.336 218.44 55.104 217.688 54.64C216.952 54.176 216.376 53.464 215.96 52.504C215.544 51.528 215.336 50.272 215.336 48.736C215.336 47.28 215.568 46.08 216.032 45.136C216.496 44.176 217.128 43.456 217.928 42.976C218.744 42.496 219.664 42.256 220.688 42.256ZM236.496 42.256C237.664 42.256 238.688 42.472 239.568 42.904C240.448 43.336 241.136 44.032 241.632 44.992C242.128 45.952 242.376 47.224 242.376 48.808C242.376 50.392 242.128 51.664 241.632 52.624C241.136 53.568 240.448 54.256 239.568 54.688C238.688 55.12 237.664 55.336 236.496 55.336C235.36 55.336 234.344 55.12 233.448 54.688C232.568 54.256 231.872 53.568 231.36 52.624C230.864 51.664 230.616 50.392 230.616 48.808C230.616 47.224 230.864 45.952 231.36 44.992C231.872 44.032 232.568 43.336 233.448 42.904C234.344 42.472 235.36 42.256 236.496 42.256ZM236.496 42.736C235.856 42.736 235.32 43.216 234.888 44.176C234.456 45.12 234.24 46.664 234.24 48.808C234.24 50.952 234.456 52.496 234.888 53.44C235.32 54.384 235.856 54.856 236.496 54.856C237.152 54.856 237.688 54.384 238.104 53.44C238.536 52.496 238.752 50.952 238.752 48.808C238.752 46.664 238.536 45.12 238.104 44.176C237.688 43.216 237.152 42.736 236.496 42.736ZM250.313 42.592V43.096C249.961 43.096 249.649 43.12 249.377 43.168C249.121 43.2 248.945 43.312 248.849 43.504C248.769 43.696 248.801 44.008 248.945 44.44L251.225 51.568L250.913 51.904L253.721 42.568L254.201 42.784L250.529 55.048C250.273 55.032 250.017 55.024 249.761 55.024C249.505 55.024 249.241 55.032 248.969 55.048L245.177 44.44C244.953 43.8 244.705 43.416 244.433 43.288C244.177 43.16 243.961 43.096 243.785 43.096V42.592C244.297 42.64 244.825 42.68 245.369 42.712C245.929 42.728 246.537 42.736 247.193 42.736C247.689 42.736 248.209 42.72 248.753 42.688C249.313 42.656 249.833 42.624 250.313 42.592ZM262.841 42.592V43.072C262.537 43.152 262.249 43.336 261.977 43.624C261.705 43.912 261.449 44.416 261.209 45.136L258.017 55.048C257.761 55.032 257.497 55.024 257.225 55.024C256.969 55.024 256.713 55.032 256.457 55.048L253.073 45.808L253.721 42.568C254.009 42.584 254.297 42.592 254.585 42.592C254.889 42.576 255.185 42.568 255.473 42.568L258.761 52.264L258.497 52L260.105 46.912C260.377 46.032 260.481 45.32 260.417 44.776C260.353 44.232 260.161 43.824 259.841 43.552C259.521 43.28 259.089 43.12 258.545 43.072V42.592C258.801 42.608 259.073 42.624 259.361 42.64C259.665 42.64 259.961 42.648 260.249 42.664C260.553 42.664 260.809 42.664 261.017 42.664C261.337 42.664 261.665 42.656 262.001 42.64C262.353 42.624 262.633 42.608 262.841 42.592Z" fill="#DE2727"/>
<defs>
<clipPath id="clip0_126_4">
<rect width="93.5492" height="85.1272" fill="white" transform="translate(127.246 41.9097) rotate(139.685)"/>
</clipPath>
</defs>
</svg>
