<svg width="92" height="19" viewBox="0 0 92 19" fill="none" xmlns="http://www.w3.org/2000/svg">
<path d="M8.528 0.671999C9.584 0.671999 10.448 0.831999 11.12 1.152C11.808 1.456 12.416 1.816 12.944 2.232C13.264 2.472 13.504 2.504 13.664 2.328C13.84 2.136 13.96 1.696 14.024 1.008H14.576C14.544 1.632 14.52 2.392 14.504 3.288C14.488 4.168 14.48 5.344 14.48 6.816H13.928C13.848 6.08 13.744 5.456 13.616 4.944C13.488 4.416 13.312 3.952 13.088 3.552C12.864 3.152 12.544 2.792 12.128 2.472C11.728 2.072 11.264 1.776 10.736 1.584C10.208 1.392 9.656 1.296 9.08 1.296C8.216 1.296 7.48 1.528 6.872 1.992C6.264 2.44 5.768 3.056 5.384 3.84C5.016 4.624 4.744 5.512 4.568 6.504C4.392 7.48 4.304 8.496 4.304 9.552C4.304 10.624 4.392 11.656 4.568 12.648C4.76 13.624 5.048 14.496 5.432 15.264C5.832 16.032 6.344 16.64 6.968 17.088C7.592 17.536 8.328 17.76 9.176 17.76C9.704 17.76 10.232 17.664 10.76 17.472C11.304 17.264 11.768 16.968 12.152 16.584C12.776 16.104 13.2 15.512 13.424 14.808C13.648 14.088 13.816 13.136 13.928 11.952H14.48C14.48 13.472 14.488 14.704 14.504 15.648C14.52 16.576 14.544 17.36 14.576 18H14.024C13.96 17.312 13.848 16.88 13.688 16.704C13.544 16.528 13.296 16.552 12.944 16.776C12.352 17.192 11.72 17.56 11.048 17.88C10.392 18.184 9.544 18.336 8.504 18.336C6.808 18.336 5.32 17.992 4.04 17.304C2.776 16.616 1.792 15.624 1.088 14.328C0.384 13.032 0.032 11.472 0.032 9.648C0.032 7.856 0.392 6.288 1.112 4.944C1.848 3.6 2.848 2.552 4.112 1.8C5.392 1.048 6.864 0.671999 8.528 0.671999ZM23.6499 5.256C24.8179 5.256 25.8419 5.472 26.7219 5.904C27.6019 6.336 28.2899 7.032 28.7859 7.992C29.2819 8.952 29.5299 10.224 29.5299 11.808C29.5299 13.392 29.2819 14.664 28.7859 15.624C28.2899 16.568 27.6019 17.256 26.7219 17.688C25.8419 18.12 24.8179 18.336 23.6499 18.336C22.5139 18.336 21.4979 18.12 20.6019 17.688C19.7219 17.256 19.0259 16.568 18.5139 15.624C18.0179 14.664 17.7699 13.392 17.7699 11.808C17.7699 10.224 18.0179 8.952 18.5139 7.992C19.0259 7.032 19.7219 6.336 20.6019 5.904C21.4979 5.472 22.5139 5.256 23.6499 5.256ZM23.6499 5.736C23.0099 5.736 22.4739 6.216 22.0419 7.176C21.6099 8.12 21.3939 9.664 21.3939 11.808C21.3939 13.952 21.6099 15.496 22.0419 16.44C22.4739 17.384 23.0099 17.856 23.6499 17.856C24.3059 17.856 24.8419 17.384 25.2579 16.44C25.6899 15.496 25.9059 13.952 25.9059 11.808C25.9059 9.664 25.6899 8.12 25.2579 7.176C24.8419 6.216 24.3059 5.736 23.6499 5.736ZM40.9162 5.256C41.5882 5.256 42.1322 5.344 42.5482 5.52C42.9802 5.68 43.3162 5.904 43.5562 6.192C43.8122 6.496 43.9962 6.888 44.1082 7.368C44.2362 7.848 44.3002 8.496 44.3002 9.312V15.768C44.3002 16.44 44.4122 16.896 44.6362 17.136C44.8762 17.376 45.2762 17.496 45.8362 17.496V18C45.5322 17.984 45.0762 17.968 44.4682 17.952C43.8602 17.92 43.2602 17.904 42.6682 17.904C42.0602 17.904 41.4602 17.92 40.8682 17.952C40.2922 17.968 39.8522 17.984 39.5482 18V17.496C40.0282 17.496 40.3642 17.376 40.5562 17.136C40.7482 16.896 40.8442 16.44 40.8442 15.768V8.304C40.8442 7.904 40.8042 7.56 40.7242 7.272C40.6442 6.968 40.5002 6.736 40.2922 6.576C40.0842 6.4 39.7722 6.312 39.3562 6.312C38.9242 6.312 38.5242 6.432 38.1562 6.672C37.8042 6.912 37.5162 7.248 37.2922 7.68C37.0842 8.096 36.9802 8.568 36.9802 9.096V15.768C36.9802 16.44 37.0762 16.896 37.2682 17.136C37.4762 17.376 37.8122 17.496 38.2762 17.496V18C37.9882 17.984 37.5642 17.968 37.0042 17.952C36.4602 17.92 35.8922 17.904 35.3002 17.904C34.6922 17.904 34.0682 17.92 33.4282 17.952C32.7882 17.968 32.3082 17.984 31.9882 18V17.496C32.5482 17.496 32.9402 17.376 33.1642 17.136C33.4042 16.896 33.5242 16.44 33.5242 15.768V8.208C33.5242 7.488 33.4122 6.96 33.1882 6.624C32.9802 6.272 32.5802 6.096 31.9882 6.096V5.592C32.5002 5.64 32.9962 5.664 33.4762 5.664C34.1482 5.664 34.7722 5.64 35.3482 5.592C35.9402 5.528 36.4842 5.44 36.9802 5.328V7.488C37.3802 6.672 37.9242 6.096 38.6122 5.76C39.3002 5.424 40.0682 5.256 40.9162 5.256ZM52.5624 1.656V5.592H55.3944V6.072H52.5624V15.768C52.5624 16.248 52.6504 16.592 52.8264 16.8C53.0024 16.992 53.2664 17.088 53.6184 17.088C53.9064 17.088 54.1944 16.984 54.4824 16.776C54.7704 16.552 55.0264 16.176 55.2504 15.648L55.6584 15.864C55.4024 16.584 55.0104 17.176 54.4824 17.64C53.9704 18.104 53.2664 18.336 52.3704 18.336C51.8424 18.336 51.3784 18.264 50.9784 18.12C50.5784 17.992 50.2424 17.792 49.9704 17.52C49.6184 17.168 49.3864 16.736 49.2744 16.224C49.1624 15.696 49.1064 15.016 49.1064 14.184V6.072H47.0904V5.592H49.1064V2.424C49.7784 2.424 50.3944 2.368 50.9544 2.256C51.5304 2.128 52.0664 1.928 52.5624 1.656ZM60.3999 18.168C59.6799 18.168 59.0799 18.032 58.5999 17.76C58.1199 17.488 57.7679 17.128 57.5439 16.68C57.3199 16.216 57.2079 15.712 57.2079 15.168C57.2079 14.48 57.3599 13.92 57.6639 13.488C57.9839 13.056 58.3919 12.704 58.8879 12.432C59.3839 12.16 59.9039 11.936 60.4479 11.76C61.0079 11.584 61.5359 11.416 62.0319 11.256C62.5439 11.08 62.9519 10.88 63.2559 10.656C63.5759 10.416 63.7359 10.112 63.7359 9.744V7.872C63.7359 7.456 63.6639 7.088 63.5199 6.768C63.3919 6.432 63.1839 6.176 62.8959 6C62.6239 5.824 62.2639 5.736 61.8159 5.736C61.4959 5.736 61.1759 5.784 60.8559 5.88C60.5359 5.96 60.2719 6.104 60.0639 6.312C60.5119 6.472 60.8559 6.72 61.0959 7.056C61.3519 7.376 61.4799 7.744 61.4799 8.16C61.4799 8.704 61.2879 9.136 60.9039 9.456C60.5359 9.776 60.0959 9.936 59.5839 9.936C59.0079 9.936 58.5679 9.76 58.2639 9.408C57.9759 9.04 57.8319 8.6 57.8319 8.088C57.8319 7.624 57.9439 7.24 58.1679 6.936C58.4079 6.632 58.7359 6.344 59.1519 6.072C59.5999 5.816 60.1359 5.616 60.7599 5.472C61.3999 5.328 62.0879 5.256 62.8239 5.256C63.5599 5.256 64.2239 5.336 64.8159 5.496C65.4079 5.64 65.9039 5.912 66.3039 6.312C66.6719 6.68 66.9119 7.136 67.0239 7.68C67.1359 8.208 67.1919 8.88 67.1919 9.696V16.224C67.1919 16.624 67.2319 16.904 67.3119 17.064C67.3919 17.208 67.5279 17.28 67.7199 17.28C67.8639 17.28 67.9999 17.24 68.1279 17.16C68.2719 17.08 68.4239 16.984 68.5839 16.872L68.8239 17.28C68.4879 17.568 68.0959 17.792 67.6479 17.952C67.2159 18.096 66.7279 18.168 66.1839 18.168C65.5919 18.168 65.1199 18.088 64.7679 17.928C64.4159 17.752 64.1599 17.52 63.9999 17.232C63.8559 16.944 63.7839 16.608 63.7839 16.224C63.3999 16.832 62.9359 17.312 62.3919 17.664C61.8479 18 61.1839 18.168 60.3999 18.168ZM62.1039 16.632C62.4239 16.632 62.7119 16.56 62.9679 16.416C63.2399 16.256 63.4959 16 63.7359 15.648V10.728C63.5919 10.968 63.3919 11.184 63.1359 11.376C62.8799 11.568 62.6079 11.768 62.3199 11.976C62.0319 12.168 61.7519 12.384 61.4799 12.624C61.2239 12.864 61.0159 13.16 60.8559 13.512C60.6959 13.864 60.6159 14.288 60.6159 14.784C60.6159 15.408 60.7519 15.872 61.0239 16.176C61.2959 16.48 61.6559 16.632 62.1039 16.632ZM75.3418 1.656V5.592H78.1738V6.072H75.3418V15.768C75.3418 16.248 75.4298 16.592 75.6058 16.8C75.7818 16.992 76.0458 17.088 76.3978 17.088C76.6858 17.088 76.9738 16.984 77.2618 16.776C77.5498 16.552 77.8058 16.176 78.0298 15.648L78.4378 15.864C78.1818 16.584 77.7898 17.176 77.2618 17.64C76.7498 18.104 76.0458 18.336 75.1498 18.336C74.6218 18.336 74.1578 18.264 73.7578 18.12C73.3578 17.992 73.0218 17.792 72.7498 17.52C72.3978 17.168 72.1658 16.736 72.0538 16.224C71.9418 15.696 71.8858 15.016 71.8858 14.184V6.072H69.8698V5.592H71.8858V2.424C72.5578 2.424 73.1738 2.368 73.7338 2.256C74.3098 2.128 74.8458 1.928 75.3418 1.656ZM85.9655 5.256C87.1335 5.256 88.1575 5.472 89.0375 5.904C89.9175 6.336 90.6055 7.032 91.1015 7.992C91.5975 8.952 91.8455 10.224 91.8455 11.808C91.8455 13.392 91.5975 14.664 91.1015 15.624C90.6055 16.568 89.9175 17.256 89.0375 17.688C88.1575 18.12 87.1335 18.336 85.9655 18.336C84.8295 18.336 83.8135 18.12 82.9175 17.688C82.0375 17.256 81.3415 16.568 80.8295 15.624C80.3335 14.664 80.0855 13.392 80.0855 11.808C80.0855 10.224 80.3335 8.952 80.8295 7.992C81.3415 7.032 82.0375 6.336 82.9175 5.904C83.8135 5.472 84.8295 5.256 85.9655 5.256ZM85.9655 5.736C85.3255 5.736 84.7895 6.216 84.3575 7.176C83.9255 8.12 83.7095 9.664 83.7095 11.808C83.7095 13.952 83.9255 15.496 84.3575 16.44C84.7895 17.384 85.3255 17.856 85.9655 17.856C86.6215 17.856 87.1575 17.384 87.5735 16.44C88.0055 15.496 88.2215 13.952 88.2215 11.808C88.2215 9.664 88.0055 8.12 87.5735 7.176C87.1575 6.216 86.6215 5.736 85.9655 5.736Z" fill="#DE2727"/>
</svg>
