<svg width="50" height="50" viewBox="0 0 50 50" fill="none" xmlns="http://www.w3.org/2000/svg">
<path d="M8.33331 21.875C6.60415 21.875 5.20831 23.2708 5.20831 25C5.20831 26.7292 6.60415 28.125 8.33331 28.125C10.0625 28.125 11.4583 26.7292 11.4583 25C11.4583 23.2708 10.0625 21.875 8.33331 21.875ZM8.33331 9.375C6.60415 9.375 5.20831 10.7708 5.20831 12.5C5.20831 14.2292 6.60415 15.625 8.33331 15.625C10.0625 15.625 11.4583 14.2292 11.4583 12.5C11.4583 10.7708 10.0625 9.375 8.33331 9.375ZM8.33331 34.375C6.60415 34.375 5.20831 35.7917 5.20831 37.5C5.20831 39.2083 6.62498 40.625 8.33331 40.625C10.0416 40.625 11.4583 39.2083 11.4583 37.5C11.4583 35.7917 10.0625 34.375 8.33331 34.375ZM16.6666 39.5833H41.6666C42.8125 39.5833 43.75 38.6458 43.75 37.5C43.75 36.3542 42.8125 35.4167 41.6666 35.4167H16.6666C15.5208 35.4167 14.5833 36.3542 14.5833 37.5C14.5833 38.6458 15.5208 39.5833 16.6666 39.5833ZM16.6666 27.0833H41.6666C42.8125 27.0833 43.75 26.1458 43.75 25C43.75 23.8542 42.8125 22.9167 41.6666 22.9167H16.6666C15.5208 22.9167 14.5833 23.8542 14.5833 25C14.5833 26.1458 15.5208 27.0833 16.6666 27.0833ZM14.5833 12.5C14.5833 13.6458 15.5208 14.5833 16.6666 14.5833H41.6666C42.8125 14.5833 43.75 13.6458 43.75 12.5C43.75 11.3542 42.8125 10.4167 41.6666 10.4167H16.6666C15.5208 10.4167 14.5833 11.3542 14.5833 12.5Z" fill="#DE2727"/>
</svg>
