<svg width="136" height="20" viewBox="0 0 136 20" fill="none" xmlns="http://www.w3.org/2000/svg">
<path d="M5.816 1.696C6.76 1.696 7.488 1.8 8 2.008C8.512 2.2 8.952 2.408 9.32 2.632C9.512 2.744 9.664 2.832 9.776 2.896C9.904 2.944 10.024 2.968 10.136 2.968C10.296 2.968 10.408 2.88 10.472 2.704C10.552 2.528 10.616 2.264 10.664 1.912H11.216C11.2 2.216 11.176 2.584 11.144 3.016C11.128 3.432 11.112 3.984 11.096 4.672C11.096 5.36 11.096 6.264 11.096 7.384H10.544C10.48 6.552 10.288 5.744 9.968 4.96C9.648 4.176 9.192 3.536 8.6 3.04C8.024 2.528 7.312 2.272 6.464 2.272C5.696 2.272 5.064 2.488 4.568 2.92C4.072 3.352 3.824 3.952 3.824 4.72C3.824 5.36 3.984 5.912 4.304 6.376C4.624 6.824 5.088 7.264 5.696 7.696C6.32 8.128 7.072 8.648 7.952 9.256C8.72 9.752 9.408 10.248 10.016 10.744C10.624 11.24 11.112 11.8 11.48 12.424C11.848 13.048 12.032 13.792 12.032 14.656C12.032 15.712 11.752 16.584 11.192 17.272C10.648 17.96 9.928 18.48 9.032 18.832C8.136 19.168 7.152 19.336 6.08 19.336C5.088 19.336 4.296 19.24 3.704 19.048C3.112 18.856 2.616 18.656 2.216 18.448C1.864 18.224 1.592 18.112 1.4 18.112C1.24 18.112 1.12 18.2 1.04 18.376C0.976 18.552 0.92 18.816 0.872 19.168H0.32C0.352 18.784 0.368 18.336 0.368 17.824C0.384 17.312 0.392 16.648 0.392 15.832C0.408 15 0.416 13.952 0.416 12.688H0.968C1.032 13.744 1.208 14.736 1.496 15.664C1.8 16.576 2.256 17.312 2.864 17.872C3.488 18.432 4.312 18.712 5.336 18.712C5.896 18.712 6.392 18.616 6.824 18.424C7.272 18.216 7.632 17.912 7.904 17.512C8.176 17.112 8.312 16.616 8.312 16.024C8.312 15.352 8.152 14.768 7.832 14.272C7.528 13.776 7.104 13.312 6.56 12.88C6.032 12.448 5.416 12.008 4.712 11.56C3.96 11.064 3.256 10.568 2.6 10.072C1.944 9.576 1.416 9.008 1.016 8.368C0.632 7.728 0.44 6.968 0.44 6.088C0.44 5.08 0.688 4.256 1.184 3.616C1.696 2.96 2.36 2.48 3.176 2.176C4.008 1.856 4.888 1.696 5.816 1.696ZM20.7436 6.256C22.1516 6.256 23.2556 6.672 24.0556 7.504C24.8556 8.336 25.2556 9.696 25.2556 11.584H17.3596L17.3116 11.128H22.2316C22.2476 10.344 22.1996 9.624 22.0876 8.968C21.9756 8.296 21.7996 7.76 21.5596 7.36C21.3196 6.96 20.9996 6.76 20.5996 6.76C20.0396 6.76 19.5596 7.112 19.1596 7.816C18.7756 8.52 18.5436 9.688 18.4636 11.32L18.5356 11.464C18.5196 11.656 18.5036 11.856 18.4876 12.064C18.4876 12.272 18.4876 12.488 18.4876 12.712C18.4876 13.816 18.6396 14.712 18.9436 15.4C19.2636 16.088 19.6636 16.592 20.1436 16.912C20.6236 17.216 21.1116 17.368 21.6076 17.368C21.9436 17.368 22.2876 17.32 22.6396 17.224C23.0076 17.112 23.3756 16.92 23.7436 16.648C24.1116 16.36 24.4556 15.96 24.7756 15.448L25.2076 15.592C25.0156 16.2 24.7116 16.792 24.2956 17.368C23.8796 17.944 23.3516 18.416 22.7116 18.784C22.0716 19.152 21.3036 19.336 20.4076 19.336C19.3196 19.336 18.3596 19.104 17.5276 18.64C16.6956 18.176 16.0396 17.472 15.5596 16.528C15.0956 15.584 14.8636 14.384 14.8636 12.928C14.8636 11.44 15.1116 10.2 15.6076 9.208C16.1196 8.216 16.8156 7.48 17.6956 7C18.5916 6.504 19.6076 6.256 20.7436 6.256ZM32.5818 6.592V7.096C32.2618 7.096 32.0218 7.168 31.8618 7.312C31.7178 7.456 31.7258 7.656 31.8858 7.912L38.1978 17.296C38.3898 17.584 38.5898 17.848 38.7978 18.088C39.0218 18.312 39.2698 18.448 39.5418 18.496V19C39.3018 18.984 38.9338 18.968 38.4378 18.952C37.9578 18.92 37.4698 18.904 36.9738 18.904C36.3978 18.904 35.8058 18.92 35.1978 18.952C34.5898 18.968 34.1418 18.984 33.8538 19V18.496C34.1738 18.496 34.4058 18.424 34.5498 18.28C34.7098 18.136 34.7098 17.936 34.5498 17.68L28.2378 8.296C27.9658 7.896 27.7338 7.608 27.5418 7.432C27.3658 7.24 27.1498 7.128 26.8938 7.096V6.592C27.1658 6.608 27.5738 6.632 28.1178 6.664C28.6618 6.68 29.2058 6.688 29.7498 6.688C30.2778 6.688 30.8138 6.68 31.3578 6.664C31.9018 6.632 32.3098 6.608 32.5818 6.592ZM32.0298 13.216C32.0298 13.216 32.0378 13.264 32.0538 13.36C32.0858 13.456 32.1098 13.552 32.1258 13.648C32.1578 13.744 32.1738 13.792 32.1738 13.792L31.2138 15.016C30.7338 15.64 30.4698 16.216 30.4218 16.744C30.3738 17.256 30.5098 17.672 30.8298 17.992C31.1498 18.296 31.5898 18.472 32.1498 18.52V19C31.8458 18.984 31.4698 18.976 31.0218 18.976C30.5898 18.96 30.1658 18.952 29.7498 18.952C29.3338 18.936 28.9818 18.928 28.6938 18.928C28.3418 18.928 28.0298 18.936 27.7578 18.952C27.5018 18.952 27.2538 18.968 27.0138 19V18.52C27.3818 18.376 27.7338 18.168 28.0698 17.896C28.4058 17.608 28.7818 17.2 29.1978 16.672L32.0298 13.216ZM38.8458 6.592V7.072C38.5098 7.168 38.1578 7.376 37.7898 7.696C37.4218 8.016 37.0378 8.424 36.6378 8.92L33.9978 12.232C33.9978 12.232 33.9818 12.192 33.9498 12.112C33.9338 12.016 33.9098 11.92 33.8778 11.824C33.8618 11.728 33.8538 11.68 33.8538 11.68L35.0538 10.072C35.4858 9.512 35.7498 9.016 35.8458 8.584C35.9418 8.152 35.8698 7.8 35.6298 7.528C35.4058 7.256 35.0058 7.104 34.4298 7.072V6.592C34.8938 6.608 35.3658 6.624 35.8458 6.64C36.3258 6.656 36.7578 6.664 37.1418 6.664C37.5098 6.664 37.8298 6.656 38.1018 6.64C38.3738 6.624 38.6218 6.608 38.8458 6.592ZM63.0607 2.008V2.488C62.7087 2.616 62.3407 2.896 61.9567 3.328C61.5727 3.744 61.2367 4.416 60.9487 5.344L56.7247 19.048C56.5967 19.032 56.4607 19.024 56.3167 19.024C56.1727 19.024 56.0287 19.024 55.8847 19.024C55.7407 19.024 55.5967 19.024 55.4527 19.024C55.3087 19.024 55.1727 19.032 55.0447 19.048L50.0047 3.784C49.8447 3.288 49.6447 2.952 49.4047 2.776C49.1807 2.6 48.9407 2.504 48.6847 2.488V2.008C49.1327 2.024 49.6607 2.04 50.2687 2.056C50.8927 2.072 51.5087 2.08 52.1167 2.08C52.8207 2.08 53.4767 2.072 54.0847 2.056C54.7087 2.04 55.2047 2.024 55.5727 2.008V2.488C55.0927 2.504 54.7087 2.56 54.4207 2.656C54.1487 2.752 53.9887 2.936 53.9407 3.208C53.9087 3.48 53.9887 3.912 54.1807 4.504L57.5887 14.92L57.0367 15.904L59.7487 7.288C60.1327 6.072 60.3167 5.12 60.3007 4.432C60.2847 3.744 60.1007 3.256 59.7487 2.968C59.3967 2.664 58.8927 2.504 58.2367 2.488V2.008C58.7807 2.024 59.2927 2.04 59.7727 2.056C60.2527 2.072 60.7327 2.08 61.2127 2.08C61.5807 2.08 61.9167 2.072 62.2207 2.056C62.5407 2.04 62.8207 2.024 63.0607 2.008ZM45.9247 2.008V2.488C45.6047 2.536 45.3807 2.656 45.2527 2.848C45.1247 3.024 45.0687 3.264 45.0847 3.568C45.1167 3.856 45.1887 4.168 45.3007 4.504L48.9727 15.16L48.3247 16.024L51.3967 7.048L51.7327 7.696L47.9647 19.048C47.8367 19.032 47.7007 19.024 47.5567 19.024C47.4127 19.024 47.2687 19.024 47.1247 19.024C46.9807 19.024 46.8367 19.024 46.6927 19.024C46.5487 19.024 46.4127 19.032 46.2847 19.048L40.9087 4.024C40.7007 3.432 40.4527 3.032 40.1647 2.824C39.8927 2.616 39.6367 2.504 39.3967 2.488V2.008C39.8767 2.024 40.4447 2.04 41.1007 2.056C41.7567 2.072 42.3807 2.08 42.9727 2.08C43.6127 2.08 44.1807 2.072 44.6767 2.056C45.1887 2.04 45.6047 2.024 45.9247 2.008ZM66.8876 0.399999C67.5596 0.399999 68.0876 0.567999 68.4716 0.904C68.8716 1.224 69.0716 1.672 69.0716 2.248C69.0716 2.824 68.8716 3.28 68.4716 3.616C68.0876 3.936 67.5596 4.096 66.8876 4.096C66.2156 4.096 65.6796 3.936 65.2796 3.616C64.8956 3.28 64.7036 2.824 64.7036 2.248C64.7036 1.672 64.8956 1.224 65.2796 0.904C65.6796 0.567999 66.2156 0.399999 66.8876 0.399999ZM68.7596 6.328V16.768C68.7596 17.44 68.8716 17.896 69.0956 18.136C69.3356 18.376 69.7356 18.496 70.2956 18.496V19C70.0076 18.984 69.5596 18.968 68.9516 18.952C68.3436 18.92 67.7276 18.904 67.1036 18.904C66.4796 18.904 65.8476 18.92 65.2076 18.952C64.5676 18.968 64.0876 18.984 63.7676 19V18.496C64.3276 18.496 64.7196 18.376 64.9436 18.136C65.1836 17.896 65.3036 17.44 65.3036 16.768V9.208C65.3036 8.488 65.1916 7.96 64.9676 7.624C64.7596 7.272 64.3596 7.096 63.7676 7.096V6.592C64.2796 6.64 64.7756 6.664 65.2556 6.664C65.9276 6.664 66.5516 6.64 67.1276 6.592C67.7196 6.528 68.2636 6.44 68.7596 6.328ZM81.2259 6.256C81.8979 6.256 82.4419 6.344 82.8579 6.52C83.2899 6.68 83.6259 6.904 83.8659 7.192C84.1219 7.496 84.3059 7.888 84.4179 8.368C84.5459 8.848 84.6099 9.496 84.6099 10.312V16.768C84.6099 17.44 84.7219 17.896 84.9459 18.136C85.1859 18.376 85.5859 18.496 86.1459 18.496V19C85.8419 18.984 85.3859 18.968 84.7779 18.952C84.1699 18.92 83.5699 18.904 82.9779 18.904C82.3699 18.904 81.7699 18.92 81.1779 18.952C80.6019 18.968 80.1619 18.984 79.8579 19V18.496C80.3379 18.496 80.6739 18.376 80.8659 18.136C81.0579 17.896 81.1539 17.44 81.1539 16.768V9.304C81.1539 8.904 81.1139 8.56 81.0339 8.272C80.9539 7.968 80.8099 7.736 80.6019 7.576C80.3939 7.4 80.0819 7.312 79.6659 7.312C79.2339 7.312 78.8339 7.432 78.4659 7.672C78.1139 7.912 77.8259 8.248 77.6019 8.68C77.3939 9.096 77.2899 9.568 77.2899 10.096V16.768C77.2899 17.44 77.3859 17.896 77.5779 18.136C77.7859 18.376 78.1219 18.496 78.5859 18.496V19C78.2979 18.984 77.8739 18.968 77.3139 18.952C76.7699 18.92 76.2019 18.904 75.6099 18.904C75.0019 18.904 74.3779 18.92 73.7379 18.952C73.0979 18.968 72.6179 18.984 72.2979 19V18.496C72.8579 18.496 73.2499 18.376 73.4739 18.136C73.7139 17.896 73.8339 17.44 73.8339 16.768V9.208C73.8339 8.488 73.7219 7.96 73.4979 7.624C73.2899 7.272 72.8899 7.096 72.2979 7.096V6.592C72.8099 6.64 73.3059 6.664 73.7859 6.664C74.4579 6.664 75.0819 6.64 75.6579 6.592C76.2499 6.528 76.7939 6.44 77.2899 6.328V8.488C77.6899 7.672 78.2339 7.096 78.9219 6.76C79.6099 6.424 80.3779 6.256 81.2259 6.256ZM99.8081 0.207999V16.36C99.8081 17.08 99.9201 17.616 100.144 17.968C100.368 18.304 100.768 18.472 101.344 18.472V18.976C100.848 18.928 100.352 18.904 99.8561 18.904C99.1841 18.904 98.5521 18.928 97.9601 18.976C97.3841 19.024 96.8481 19.112 96.3521 19.24V3.088C96.3521 2.368 96.2401 1.84 96.0161 1.504C95.8081 1.152 95.4081 0.975999 94.8161 0.975999V0.472C95.3281 0.519999 95.8241 0.543999 96.3041 0.543999C96.9601 0.543999 97.5841 0.519999 98.1761 0.472C98.7681 0.408 99.3121 0.319999 99.8081 0.207999ZM93.6881 6.256C94.3921 6.256 95.0081 6.376 95.5361 6.616C96.0801 6.84 96.5041 7.224 96.8081 7.768L96.5201 8.032C96.3121 7.648 96.0321 7.376 95.6801 7.216C95.3441 7.04 94.9841 6.952 94.6001 6.952C93.7841 6.952 93.1361 7.432 92.6561 8.392C92.1761 9.336 91.9441 10.8 91.9601 12.784C91.9601 14.144 92.0481 15.232 92.2241 16.048C92.4161 16.848 92.6801 17.424 93.0161 17.776C93.3681 18.128 93.7681 18.304 94.2161 18.304C94.7601 18.304 95.2481 18.088 95.6801 17.656C96.1121 17.224 96.3441 16.64 96.3761 15.904L96.4961 16.744C96.2561 17.592 95.8641 18.24 95.3201 18.688C94.7921 19.12 94.0961 19.336 93.2321 19.336C92.2881 19.336 91.4401 19.104 90.6881 18.64C89.9521 18.176 89.3761 17.464 88.9601 16.504C88.5441 15.528 88.3361 14.272 88.3361 12.736C88.3361 11.28 88.5681 10.08 89.0321 9.136C89.4961 8.176 90.1281 7.456 90.9281 6.976C91.7441 6.496 92.6641 6.256 93.6881 6.256ZM109.496 6.256C110.664 6.256 111.688 6.472 112.568 6.904C113.448 7.336 114.136 8.032 114.632 8.992C115.128 9.952 115.376 11.224 115.376 12.808C115.376 14.392 115.128 15.664 114.632 16.624C114.136 17.568 113.448 18.256 112.568 18.688C111.688 19.12 110.664 19.336 109.496 19.336C108.36 19.336 107.344 19.12 106.448 18.688C105.568 18.256 104.872 17.568 104.36 16.624C103.864 15.664 103.616 14.392 103.616 12.808C103.616 11.224 103.864 9.952 104.36 8.992C104.872 8.032 105.568 7.336 106.448 6.904C107.344 6.472 108.36 6.256 109.496 6.256ZM109.496 6.736C108.856 6.736 108.32 7.216 107.888 8.176C107.456 9.12 107.24 10.664 107.24 12.808C107.24 14.952 107.456 16.496 107.888 17.44C108.32 18.384 108.856 18.856 109.496 18.856C110.152 18.856 110.688 18.384 111.104 17.44C111.536 16.496 111.752 14.952 111.752 12.808C111.752 10.664 111.536 9.12 111.104 8.176C110.688 7.216 110.152 6.736 109.496 6.736ZM123.313 6.592V7.096C122.961 7.096 122.649 7.12 122.377 7.168C122.121 7.2 121.945 7.312 121.849 7.504C121.769 7.696 121.801 8.008 121.945 8.44L124.225 15.568L123.913 15.904L126.721 6.568L127.201 6.784L123.529 19.048C123.273 19.032 123.017 19.024 122.761 19.024C122.505 19.024 122.241 19.032 121.969 19.048L118.177 8.44C117.953 7.8 117.705 7.416 117.433 7.288C117.177 7.16 116.961 7.096 116.785 7.096V6.592C117.297 6.64 117.825 6.68 118.369 6.712C118.929 6.728 119.537 6.736 120.193 6.736C120.689 6.736 121.209 6.72 121.753 6.688C122.313 6.656 122.833 6.624 123.313 6.592ZM135.841 6.592V7.072C135.537 7.152 135.249 7.336 134.977 7.624C134.705 7.912 134.449 8.416 134.209 9.136L131.017 19.048C130.761 19.032 130.497 19.024 130.225 19.024C129.969 19.024 129.713 19.032 129.457 19.048L126.073 9.808L126.721 6.568C127.009 6.584 127.297 6.592 127.585 6.592C127.889 6.576 128.185 6.568 128.473 6.568L131.761 16.264L131.497 16L133.105 10.912C133.377 10.032 133.481 9.32 133.417 8.776C133.353 8.232 133.161 7.824 132.841 7.552C132.521 7.28 132.089 7.12 131.545 7.072V6.592C131.801 6.608 132.073 6.624 132.361 6.64C132.665 6.64 132.961 6.648 133.249 6.664C133.553 6.664 133.809 6.664 134.017 6.664C134.337 6.664 134.665 6.656 135.001 6.64C135.353 6.624 135.633 6.608 135.841 6.592Z" fill="#DE2727"/>
</svg>
